<svg width="82" height="82" viewBox="0 0 82 82" fill="none" xmlns="http://www.w3.org/2000/svg">
<rect x="1.5" y="1.5" width="79" height="79" rx="39.5" fill="#D9D9D9" stroke="black" stroke-width="3"/>
<path d="M10.8838 51V35H14.2666V48.2109H21.126V51H10.8838ZM37.4463 43C37.4463 44.7448 37.1156 46.2292 36.4541 47.4531C35.7979 48.6771 34.902 49.612 33.7666 50.2578C32.6364 50.8984 31.3656 51.2187 29.9541 51.2187C28.5322 51.2187 27.2562 50.8958 26.126 50.25C24.9958 49.6042 24.1025 48.6693 23.4463 47.4453C22.79 46.2214 22.4619 44.7396 22.4619 43C22.4619 41.2552 22.79 39.7708 23.4463 38.5469C24.1025 37.3229 24.9958 36.3906 26.126 35.75C27.2562 35.1042 28.5322 34.7812 29.9541 34.7812C31.3656 34.7812 32.6364 35.1042 33.7666 35.75C34.902 36.3906 35.7979 37.3229 36.4541 38.5469C37.1156 39.7708 37.4463 41.2552 37.4463 43ZM34.0166 43C34.0166 41.8698 33.8473 40.9167 33.5088 40.1406C33.1755 39.3646 32.7041 38.776 32.0947 38.375C31.4854 37.974 30.7718 37.7734 29.9541 37.7734C29.1364 37.7734 28.4229 37.974 27.8135 38.375C27.2041 38.776 26.7301 39.3646 26.3916 40.1406C26.0583 40.9167 25.8916 41.8698 25.8916 43C25.8916 44.1302 26.0583 45.0833 26.3916 45.8594C26.7301 46.6354 27.2041 47.224 27.8135 47.625C28.4229 48.026 29.1364 48.2266 29.9541 48.2266C30.7718 48.2266 31.4854 48.026 32.0947 47.625C32.7041 47.224 33.1755 46.6354 33.5088 45.8594C33.8473 45.0833 34.0166 44.1302 34.0166 43ZM50.5615 40.1719C50.4521 39.7917 50.2985 39.4557 50.1006 39.1641C49.9027 38.8672 49.6605 38.6172 49.374 38.4141C49.0928 38.2057 48.7699 38.0469 48.4053 37.9375C48.0459 37.8281 47.6475 37.7734 47.21 37.7734C46.3923 37.7734 45.6735 37.9766 45.0537 38.3828C44.4391 38.7891 43.96 39.3802 43.6162 40.1562C43.2725 40.9271 43.1006 41.8698 43.1006 42.9844C43.1006 44.099 43.2699 45.0469 43.6084 45.8281C43.9469 46.6094 44.4261 47.2057 45.0459 47.6172C45.6657 48.0234 46.3975 48.2266 47.2412 48.2266C48.0068 48.2266 48.6605 48.0911 49.2021 47.8203C49.749 47.5443 50.1657 47.1562 50.4521 46.6562C50.7438 46.1562 50.8896 45.5651 50.8896 44.8828L51.5771 44.9844H47.4521V42.4375H54.1475V44.4531C54.1475 45.8594 53.8506 47.0677 53.2568 48.0781C52.6631 49.0833 51.8454 49.8594 50.8037 50.4062C49.762 50.9479 48.5693 51.2187 47.2256 51.2187C45.7256 51.2187 44.4079 50.888 43.2725 50.2266C42.137 49.5599 41.2516 48.6146 40.6162 47.3906C39.986 46.1615 39.6709 44.7031 39.6709 43.0156C39.6709 41.7187 39.8584 40.5625 40.2334 39.5469C40.6136 38.526 41.1449 37.6615 41.8271 36.9531C42.5094 36.2448 43.3037 35.7057 44.21 35.3359C45.1162 34.9661 46.098 34.7812 47.1553 34.7812C48.0615 34.7812 48.9053 34.9141 49.6865 35.1797C50.4678 35.4401 51.1605 35.8099 51.7646 36.2891C52.374 36.7682 52.8714 37.3385 53.2568 38C53.6423 38.6562 53.8896 39.3802 53.999 40.1719H50.5615ZM71.3916 43C71.3916 44.7448 71.0609 46.2292 70.3994 47.4531C69.7432 48.6771 68.8473 49.612 67.7119 50.2578C66.5817 50.8984 65.3109 51.2187 63.8994 51.2187C62.4775 51.2187 61.2015 50.8958 60.0713 50.25C58.9411 49.6042 58.0479 48.6693 57.3916 47.4453C56.7354 46.2214 56.4072 44.7396 56.4072 43C56.4072 41.2552 56.7354 39.7708 57.3916 38.5469C58.0479 37.3229 58.9411 36.3906 60.0713 35.75C61.2015 35.1042 62.4775 34.7812 63.8994 34.7812C65.3109 34.7812 66.5817 35.1042 67.7119 35.75C68.8473 36.3906 69.7432 37.3229 70.3994 38.5469C71.0609 39.7708 71.3916 41.2552 71.3916 43ZM67.9619 43C67.9619 41.8698 67.7926 40.9167 67.4541 40.1406C67.1208 39.3646 66.6494 38.776 66.04 38.375C65.4307 37.974 64.7171 37.7734 63.8994 37.7734C63.0817 37.7734 62.3682 37.974 61.7588 38.375C61.1494 38.776 60.6755 39.3646 60.3369 40.1406C60.0036 40.9167 59.8369 41.8698 59.8369 43C59.8369 44.1302 60.0036 45.0833 60.3369 45.8594C60.6755 46.6354 61.1494 47.224 61.7588 47.625C62.3682 48.026 63.0817 48.2266 63.8994 48.2266C64.7171 48.2266 65.4307 48.026 66.04 47.625C66.6494 47.224 67.1208 46.6354 67.4541 45.8594C67.7926 45.0833 67.9619 44.1302 67.9619 43Z" fill="black"/>
</svg>
